<svg version="1.1" viewBox="0.0 0.0 1000.0 1000.0" fill="none" stroke="none" stroke-linecap="square" stroke-miterlimit="10" xmlns:xlink="http://www.w3.org/1999/xlink" xmlns="http://www.w3.org/2000/svg"><clipPath id="p.0"><path d="m0 0l1000.0 0l0 1000.0l-1000.0 0l0 -1000.0z" clip-rule="nonzero"/></clipPath><g clip-path="url(#p.0)"><path fill="#000000" fill-opacity="0.0" d="m0 0l1000.0 0l0 1000.0l-1000.0 0z" fill-rule="evenodd"/><path fill="#ffff05" d="m209.88696 143.77435l141.63779 0l0 691.43304l-141.63779 0z" fill-rule="evenodd"/><path fill="#ffff05" d="m731.9887 426.66223l0 125.63782l-451.0866 0l0 -125.63782z" fill-rule="evenodd"/><path fill="#ffff05" d="m209.88696 721.3469l94.36221 0l0 160.22046l-94.36221 0z" fill-rule="evenodd"/><path fill="#ffff05" d="m209.88696 118.44621l94.36221 0l0 160.22047l-94.36221 0z" fill-rule="evenodd"/><path fill="#ffff05" d="m790.1127 856.2257l-141.63776 0l0 -691.4331l141.63776 0z" fill-rule="evenodd"/><path fill="#ffff05" d="m790.1127 278.65314l-94.36218 0l0 -160.22049l94.36218 0z" fill-rule="evenodd"/><path fill="#ffff05" d="m790.1127 881.55383l-94.36218 0l0 -160.22046l94.36218 0z" fill-rule="evenodd"/></g></svg>